<?xml version="1.0" encoding="UTF-8"?>
<svg id="Calque_1" data-name="Calque 1" xmlns="http://www.w3.org/2000/svg" viewBox="0 0 701.12 657.3">
  <defs>
    <style>
      .cls-1 {
        fill: #009be3;
      }

      .cls-2 {
        stroke: #000;
      }

      .cls-2, .cls-3 {
        fill: #fff;
        stroke-linecap: round;
        stroke-miterlimit: 10;
        stroke-width: 30px;
      }

      .cls-3 {
        stroke: #009be3;
      }
    </style>
  </defs>
  <g>
    <line class="cls-2" x1="96.62" y1="313.15" x2="244.18" y2="624.1"/>
    <line class="cls-2" x1="407.56" y1="165.58" x2="96.62" y2="313.15"/>
  </g>
  <g>
    <line class="cls-3" x1="546.9" y1="203.18" x2="466.23" y2="33.2"/>
    <line class="cls-3" x1="387.72" y1="278.72" x2="546.9" y2="203.18"/>
  </g>
  <g>
    <path class="cls-1" d="m254.23,432.46c0,1.06-.21,2.05-.62,2.98-.41.92-.96,1.73-1.65,2.42-.69.69-1.5,1.23-2.42,1.62-.92.39-1.9.59-2.92.59s-2.05-.2-2.98-.59c-.92-.39-1.73-.93-2.42-1.62-.69-.69-1.23-1.49-1.62-2.42-.39-.92-.59-1.92-.59-2.98s.2-1.99.59-2.92c.39-.92.93-1.73,1.62-2.42.69-.69,1.49-1.24,2.42-1.65.92-.41,1.92-.62,2.98-.62s2,.21,2.92.62c.92.41,1.73.96,2.42,1.65.69.69,1.24,1.49,1.65,2.42.41.92.62,1.9.62,2.92Z"/>
    <path d="m336.48,418.66c0,1.45-.17,2.99-.5,4.6-.33,1.61-.85,3.21-1.56,4.81-.71,1.59-1.62,3.12-2.74,4.57-1.12,1.46-2.48,2.74-4.07,3.86-1.59,1.12-3.43,2.01-5.51,2.68-2.08.67-4.44,1-7.08,1h-27.65c-1.46,0-2.99-.17-4.6-.5-1.61-.33-3.21-.85-4.81-1.56-1.59-.71-3.12-1.62-4.57-2.74-1.46-1.12-2.74-2.48-3.86-4.07-1.12-1.59-2.01-3.44-2.68-5.54-.67-2.1-1-4.47-1-7.1v-69.16h15.33v69.16c0,1.89.59,3.39,1.77,4.51,1.18,1.12,2.65,1.68,4.42,1.68h27.65c1.93,0,3.43-.57,4.51-1.71,1.08-1.14,1.62-2.63,1.62-4.48v-20.75c0-1.93-.57-3.43-1.71-4.51-1.14-1.08-2.61-1.62-4.42-1.62h-27.65v-15.33h27.65c1.46,0,2.99.17,4.6.5,1.61.33,3.21.85,4.8,1.56,1.59.71,3.12,1.62,4.57,2.74,1.45,1.12,2.73,2.48,3.83,4.07,1.1,1.59,1.98,3.43,2.65,5.51.67,2.08,1,4.44,1,7.08v20.75Z"/>
    <path d="m365.14,363.36h-15.33v-13.86h15.33v13.86Zm0,76.83h-15.33v-63.74h15.33v63.74Z"/>
    <path d="m449.16,418.66c0,2.63-.33,5-1,7.1-.67,2.1-1.55,3.95-2.65,5.54-1.1,1.59-2.38,2.95-3.83,4.07-1.46,1.12-2.98,2.03-4.57,2.74-1.59.71-3.21,1.23-4.84,1.56-1.63.33-3.17.5-4.63.5h-27.65c-2.12,0-4.44-.37-6.96-1.12-2.52-.75-4.85-1.98-6.99-3.69s-3.93-3.93-5.37-6.66c-1.44-2.73-2.15-6.08-2.15-10.05v-20.75c0-3.93.72-7.26,2.15-9.99,1.43-2.73,3.22-4.95,5.37-6.66s4.47-2.94,6.99-3.69c2.51-.75,4.83-1.12,6.96-1.12h27.65c3.93,0,7.27.71,10.02,2.12,2.75,1.42,4.97,3.19,6.66,5.34,1.69,2.14,2.92,4.47,3.69,6.99.77,2.52,1.15,4.86,1.15,7.02v20.75Zm-15.33-20.64c0-2.12-.53-3.69-1.59-4.72-1.06-1.02-2.59-1.53-4.6-1.53h-27.54c-2.04,0-3.6.52-4.66,1.56-1.06,1.04-1.59,2.56-1.59,4.57v20.75c0,2,.53,3.54,1.59,4.6,1.06,1.06,2.62,1.59,4.66,1.59h27.54c2.08,0,3.63-.53,4.66-1.59,1.02-1.06,1.53-2.59,1.53-4.6v-20.64Z"/>
  </g>
</svg>