<svg xmlns="http://www.w3.org/2000/svg" width="1152" height="1152" viewBox="0 0 1152 1152">
  <g id="favicon" transform="translate(-115.133 -106.623)">
    <circle id="Ellipse_1" data-name="Ellipse 1" cx="576" cy="576" r="576" transform="translate(115.133 106.623)" fill="#fff"/>
    <g id="Groupe_21" data-name="Groupe 21" transform="translate(291.977 181.286)">
      <path id="Tracé_40" data-name="Tracé 40" d="M771.114,246.246A24.982,24.982,0,0,0,737.889,234.4L221.044,479.681a25.254,25.254,0,0,0-4.318,2.6,24.222,24.222,0,0,0-5.114,5.206,24.949,24.949,0,0,0-2.389,25.417l245.285,516.845a24.95,24.95,0,0,0,45.076-21.405l-234.6-494.307,494.307-234.6a24.935,24.935,0,0,0,11.82-33.225Z" transform="translate(-206.812 4.781)"/>
      <path id="Tracé_41" data-name="Tracé 41" d="M676.841,456.911,542.776,174.389a24.936,24.936,0,1,0-45.046,21.405L621.108,455.809,379.069,570.673a24.94,24.94,0,0,0,10.718,47.465,24.481,24.481,0,0,0,10.657-2.419L665.021,490.167a24.935,24.935,0,0,0,11.82-33.225Z" transform="translate(119.058 -160.15)" fill="#009be3"/>
    </g>
  </g>
</svg>
